<?xml version="1.0" encoding="UTF-8"?>
<!DOCTYPE svg PUBLIC "-//W3C//DTD SVG 1.1//EN" "http://www.w3.org/Graphics/SVG/1.1/DTD/svg11.dtd">
<!-- Creator: CorelDRAW 2020 (64-Bit) -->
<svg xmlns="http://www.w3.org/2000/svg" xml:space="preserve" width="71.5728mm" height="12.0301mm" version="1.1" style="shape-rendering:geometricPrecision; text-rendering:geometricPrecision; image-rendering:optimizeQuality; fill-rule:evenodd; clip-rule:evenodd"
viewBox="0 0 6447.16 1083.65"
 xmlns:xlink="http://www.w3.org/1999/xlink"
 xmlns:xodm="http://www.corel.com/coreldraw/odm/2003">
 <defs>
  <style type="text/css">
   <![CDATA[
    .fil0 {fill:#282E67;fill-rule:nonzero}
   ]]>
  </style>
 </defs>
 <g id="Layer_x0020_1">
  <metadata id="CorelCorpID_0Corel-Layer"/>
  <g id="_2108973917520">
   <path class="fil0" d="M347.52 0l-347.52 0 0 1066.87 114.31 0 0 -387.11 233.21 0c198.14,0 358.16,-153.93 358.16,-344.44 0,-182.9 -160.02,-335.32 -358.16,-335.32zm-9.15 570.03l-224.06 0 0 -461.83 224.06 0c143.25,0 245.38,102.14 245.38,227.11 0,129.53 -102.13,234.72 -245.38,234.72z"/>
   <path class="fil0" d="M984.11 490.76l0 -109.72 -97.55 0 0 685.86 106.71 0 0 -379.52c0,-124.98 76.21,-214.92 202.69,-214.92l47.28 0 0 -108.2 -47.28 0c-96.01,0 -181.35,51.83 -211.84,126.51z"/>
   <polygon class="fil0" points="1424.08,1066.89 1530.76,1066.89 1530.76,381.03 1424.08,381.03 "/>
   <path class="fil0" d="M3049 1083.65c201.18,0 362.75,-149.35 362.75,-358.17 0,-210.33 -161.56,-361.21 -362.75,-361.21 -157.17,0 -291.3,93.72 -341.45,236.11 -31.18,-24.12 -69.95,-38.64 -112.05,-38.64 -42.64,0 -81.83,14.84 -113.22,39.53 -49.89,-142.9 -184.25,-237 -341.74,-237 -97.55,0 -185.97,41.16 -248.44,111.26l0 -475.52 -106.72 0 0 1066.91 106.72 0 0 -92.98c62.47,68.58 150.88,109.72 248.44,109.72 191.36,0 348.69,-137.38 361.47,-332.61l1.27 0c0,-52.72 41.38,-95.65 92.22,-95.65 49.32,0 89.36,40.45 91.77,91.02 10.56,197.69 168.87,337.25 361.73,337.25zm0 -612.7c138.68,0 248.44,106.71 248.44,254.53 0,146.31 -109.76,251.49 -248.44,251.49 -140.23,0 -248.44,-105.18 -248.44,-251.49 0,-147.83 108.2,-254.53 248.44,-254.53zm-908.46 506.02c-138.71,0 -248.44,-105.18 -248.44,-251.49 0,-147.83 109.72,-254.53 248.44,-254.53 140.2,0 248.41,106.71 248.41,254.53 0,146.31 -108.21,251.49 -248.41,251.49z"/>
   <path class="fil0" d="M3895.27 364.26c-96.03,0 -181.39,51.83 -211.86,126.51l0 -109.73 -97.55 0 0 685.87 106.71 0 0 -379.53c0,-124.97 76.21,-214.88 202.71,-214.88l47.26 0 0 -108.23 -47.26 0z"/>
   <path class="fil0" d="M886.57 157.27l0 98.83c230.42,0 458.1,-58.67 658.46,-169.66l-47.89 -86.44c-185.74,102.9 -396.87,157.27 -610.57,157.27z"/>
   <path class="fil0" d="M4396.06 344.97l-8.16 63.87 72.04 0 -1.33 17.22 -72.51 0.92c-1.22,12.68 -2.64,25.74 -4.3,39.18 -1.65,13.44 -3.11,26.83 -4.32,40.1 -1.21,13.29 -2.25,26.06 -3.14,38.29 -0.92,12.23 -1.36,23.33 -1.36,33.27 0,5.75 0.38,11.72 1.14,17.92 0.73,6.2 2.63,11.31 5.65,15.41 3.03,4.07 7.85,6.11 14.49,6.11 3.02,0 6.71,-0.6 11.09,-1.81 4.39,-1.21 9.31,-4.07 14.75,-8.61 5.43,-4.51 11.03,-11.64 16.75,-21.29l11.79 7.69c-8.76,15.41 -18.2,27.13 -28.31,35.11 -10.13,8.01 -22.44,12.01 -36.92,12.01 -11.79,0 -21.07,-2.48 -27.87,-7.47 -6.8,-4.98 -11.73,-11.57 -14.72,-19.7 -3.04,-8.16 -4.54,-16.93 -4.54,-26.28 0,-11.48 0.44,-25.46 1.37,-41.91 0.88,-16.47 2.25,-34.73 4.06,-54.82 1.81,-20.08 3.91,-41.02 6.36,-62.76l-40.33 0.44 1.37 -19.03c20.81,0 36.22,-5.56 46.2,-16.75 9.94,-11.19 17.83,-26.89 23.55,-47.13l17.22 0z"/>
   <path class="fil0" d="M4611.74 403.88c9.05,0 19.03,0.67 29.9,2.04 10.87,1.37 21.13,3.24 30.8,5.66 -2.41,18.14 -4.74,36.19 -6.99,54.15 -2.29,17.99 -4.39,35.05 -6.36,51.2 -1.97,16.17 -3.56,30.66 -4.77,43.5 -1.21,12.84 -1.81,22.88 -1.81,30.12 0,6.07 0.44,12.12 1.36,18.15 0.89,6.04 4.68,9.05 11.31,9.05 5.15,0 10.81,-3.33 17.01,-9.98 6.2,-6.64 11.57,-17.95 16.08,-33.97l12.67 2.7c-0.88,5.43 -2.79,11.73 -5.66,18.82 -2.86,7.08 -6.7,14.11 -11.53,21.07 -4.86,6.95 -10.75,12.67 -17.67,17.22 -6.95,4.51 -14.96,6.8 -24.02,6.8 -12.07,0 -20.68,-3.78 -25.83,-11.35 -5.14,-7.53 -7.68,-17.35 -7.68,-29.46 0,-8.74 0.82,-18.28 2.48,-28.54 1.65,-10.27 3.56,-20.97 5.66,-32.16l-1.34 0c-7.24,22.34 -14.74,40.26 -22.43,53.67 -7.72,13.44 -15.41,23.65 -23.11,30.6 -7.72,6.96 -15.19,11.54 -22.43,13.83 -7.25,2.26 -14.05,3.4 -20.4,3.4 -16.3,0 -29.97,-6.04 -40.99,-18.15 -11.03,-12.07 -16.53,-32.32 -16.53,-60.69 0,-21.13 2.7,-41.25 8.14,-60.28 5.43,-19.01 13.66,-35.84 24.69,-50.5 11.03,-14.65 24.84,-26.12 41.46,-34.45 16.62,-8.3 35.94,-12.46 58,-12.46zm-14.05 16.3c-13.6,0 -25.45,3.78 -35.55,11.34 -10.14,7.54 -18.53,17.74 -25.17,30.57 -6.65,12.84 -11.54,27.2 -14.72,43.06 -3.17,15.86 -4.77,32.09 -4.77,48.69 0,19.35 2.13,35.27 6.36,47.82 4.22,12.52 11.92,18.78 23.1,18.78 8.17,0 16.4,-4.06 24.7,-12.23 8.32,-8.13 16.08,-19.1 23.32,-32.82 7.28,-13.76 13.75,-29.18 19.47,-46.24 5.76,-17.07 10.3,-34.51 13.6,-52.31 3.34,-17.83 4.99,-34.89 4.99,-51.23 -4.54,-1.81 -9.82,-3.14 -15.85,-4.06 -6.04,-0.93 -12.56,-1.37 -19.48,-1.37z"/>
   <path class="fil0" d="M4789.34 640.38c-13.89,0 -25.36,-3.85 -34.45,-11.57 -9.06,-7.69 -15.76,-18.11 -20.15,-31.24 -4.39,-13.15 -6.58,-27.58 -6.58,-43.28 0,-29.58 4.93,-55.64 14.75,-78.13 9.78,-22.5 24.53,-40.17 44.17,-53.04 19.65,-12.85 43.95,-19.26 72.94,-19.26 4.54,0 8.93,0.15 13.15,0.48 4.22,0.29 8.3,0.73 12.23,1.33 1.21,-10.87 2.49,-21.8 3.85,-32.82 1.37,-11.03 2.7,-21.17 4.07,-30.38 1.37,-9.18 2.64,-16.08 3.85,-20.59 -5.44,0.29 -10.94,0.6 -16.53,0.89 -5.59,0.32 -11.09,0.6 -16.52,0.92l1.81 -18.14c13.29,0 23.61,-0.6 31.01,-1.81 7.4,-1.18 13.06,-2.7 17,-4.51 3.91,-1.81 7.09,-3.78 9.5,-5.91l13.16 0c-2.74,16.33 -5.53,36.19 -8.4,59.58 -2.86,23.42 -6.41,53.1 -10.64,89.04 -2.13,19.32 -4.17,38.58 -6.11,57.78 -1.97,19.19 -3.65,36.92 -4.99,53.23 -1.36,16.33 -2.03,29.9 -2.03,40.77 0,5.75 0.6,11.19 1.81,16.33 1.17,5.12 4.67,7.69 10.39,7.69 5.15,0 10.75,-3.31 16.78,-9.94 6.04,-6.67 11.34,-17.99 15.85,-34l13.16 2.73c-0.93,5.44 -2.8,11.69 -5.69,18.78 -2.86,7.12 -6.7,14.14 -11.53,21.07 -4.84,6.96 -10.75,12.71 -17.67,17.22 -6.95,4.55 -14.96,6.8 -24.02,6.8 -12.07,0 -20.91,-3.78 -26.5,-11.31 -5.59,-7.56 -8.39,-17.38 -8.39,-29.46 0,-8.77 0.6,-17.89 1.81,-27.43 1.21,-9.49 2.86,-19.85 4.99,-31.01l-1.37 0c-8.13,27.49 -17.12,48.4 -26.95,62.73 -9.82,14.37 -19.64,24.02 -29.46,29.01 -9.82,4.99 -19.26,7.47 -28.31,7.47zm9.5 -21.29c9.69,0 19.26,-5.43 28.79,-16.3 9.5,-10.9 18.18,-25.08 26.06,-42.62 7.85,-17.51 13.88,-36.07 18.11,-55.7 2.41,-10.58 4.44,-22.38 6.1,-35.37 1.68,-12.96 3.4,-27.77 5.21,-44.39 -4.83,-1.81 -9.88,-3.02 -15.15,-3.62 -5.31,-0.6 -10.52,-0.89 -15.64,-0.89 -12.68,0 -23.8,2.54 -33.3,7.69 -9.53,5.14 -17.6,12.07 -24.25,20.84 -6.64,8.77 -12.01,18.56 -16.08,29.46 -4.06,10.87 -7.02,22.19 -8.84,33.98 -1.81,11.78 -2.73,23.26 -2.73,34.45 0,20.53 2.35,37.75 7.03,51.63 4.7,13.89 12.93,20.84 24.69,20.84z"/>
   <path class="fil0" d="M4991.41 758.19c-10.26,-0.6 -18.58,-3.57 -24.91,-8.84 -6.36,-5.28 -9.54,-11.85 -9.54,-19.7 0,-6.96 2.13,-12.18 6.36,-15.64 4.22,-3.5 8.3,-5.22 12.23,-5.22 13.6,0 20.09,7.85 19.48,23.55 1.81,0.93 3.46,1.68 4.98,2.29 1.5,0.61 3.18,0.89 4.99,0.89 6.65,0.32 13.51,-2.1 20.59,-7.24 7.13,-5.15 13.93,-11.57 20.4,-19.26 6.49,-7.69 12.23,-15.25 17.22,-22.65 4.99,-7.4 8.67,-13.06 11.09,-17.01 -2.69,-17.5 -5.87,-35.55 -9.49,-54.11 -3.63,-18.59 -7.79,-37.15 -12.46,-55.74 -4.7,-18.59 -9.82,-36.54 -15.41,-53.93 -5.59,-17.35 -11.57,-33.74 -17.89,-49.16 -2.13,-5.12 -4.84,-10.42 -8.17,-15.86 -3.33,-5.43 -8.01,-7.85 -14.04,-7.24 -5.76,0.6 -10.04,5.15 -12.91,13.6 -2.89,8.45 -3.71,19.64 -2.5,33.53l-14.49 1.81c-0.92,-8.17 -0.98,-16.78 -0.23,-25.83 0.77,-9.06 2.64,-17.57 5.66,-25.58 3.02,-8.01 7.4,-14.52 13.16,-19.48 5.72,-4.98 13.28,-7.49 22.65,-7.49 10.27,0 18.62,2.73 25.14,8.16 6.48,5.44 11.78,12.08 15.85,19.93 4.07,7.88 7.47,15.57 10.2,23.14 5.72,15.38 11.31,33.05 16.75,53 5.43,19.93 10.2,40.23 14.26,60.92 4.11,20.72 7.19,39.98 9.31,57.77l0.89 0c8.45,-14.77 16.62,-31.1 24.47,-48.94 7.85,-17.79 14.33,-36 19.48,-54.59 5.14,-18.57 7.72,-36 7.72,-52.31 0,-7.57 -0.7,-14.21 -2.06,-19.95 -1.33,-5.72 -2.93,-9.83 -4.74,-12.24 -1.21,0.93 -2.79,1.59 -4.77,2.04 -1.97,0.48 -4.16,0.7 -6.58,0.7 -5.44,0 -9.82,-1.75 -13.12,-5.22 -3.34,-3.46 -4.99,-7.62 -4.99,-12.46 0,-6.64 2.19,-11.63 6.58,-14.96 4.35,-3.31 9.28,-4.99 14.71,-4.99 9.38,0 16.63,2.89 21.74,8.61 5.15,5.75 8.84,13 11.12,21.76 2.26,8.75 3.4,17.96 3.4,27.62 0,19.95 -2.89,40.33 -8.61,61.17 -5.76,20.84 -13.22,41.41 -22.44,61.61 -9.22,20.25 -18.97,39.72 -29.24,58.47 -15.09,27.18 -29.52,49.39 -43.25,66.58 -13.75,17.22 -27.14,29.68 -40.1,37.4 -13,7.69 -25.83,11.38 -38.52,11.1z"/>
   <path class="fil0" d="M5400.54 640.38c-12.08,0 -23.71,-1.87 -34.9,-5.66 -11.18,-3.78 -20.24,-9.28 -27.17,-16.56 -6.96,-7.24 -10.42,-15.98 -10.42,-26.28 0,-6.65 1.87,-11.98 5.66,-16.08 3.78,-4.07 8.39,-6.11 13.82,-6.11 6.04,0 10.65,1.97 13.83,5.88 3.18,3.94 4.74,8.32 4.74,13.15 0,2.1 -0.29,4.36 -0.89,6.8 -0.6,2.42 -1.66,4.84 -3.18,7.25 2.41,6.64 7.24,11.76 14.49,15.38 7.24,3.62 14.96,5.47 23.11,5.47 16.33,0 28.56,-3.78 36.7,-11.34 8.17,-7.54 12.23,-18.11 12.23,-31.72 0,-8.17 -2.86,-15.41 -8.61,-21.74 -5.72,-6.36 -12.96,-12.33 -21.74,-17.93 -8.76,-5.56 -17.83,-11.09 -27.17,-16.52 -8.77,-5.44 -17.16,-11.03 -25.17,-16.78 -8.01,-5.72 -14.49,-12.08 -19.48,-19.01 -4.98,-6.95 -7.47,-14.81 -7.47,-23.57 0,-11.15 3.31,-21.36 9.98,-30.57 6.64,-9.22 15.86,-16.62 27.62,-22.21 11.79,-5.59 25.39,-8.39 40.8,-8.39 11.48,0 22.25,1.81 32.38,5.43 10.11,3.66 18.43,8.77 24.92,15.41 6.49,6.64 9.76,14.52 9.76,23.58 0,6.32 -1.81,11.4 -5.43,15.15 -3.62,3.78 -8.17,5.66 -13.6,5.66 -5.43,0 -9.82,-1.81 -13.16,-5.43 -3.3,-3.62 -4.95,-7.85 -4.95,-12.67 0,-2.42 0.29,-4.74 0.89,-7.03 0.6,-2.26 1.65,-4.61 3.18,-7.03 -1.53,-5.12 -5.22,-9.43 -11.1,-12.9 -5.91,-3.47 -13.98,-5.22 -24.24,-5.22 -6.65,0 -13.16,1.53 -19.48,4.51 -6.35,3.05 -11.63,7.19 -15.85,12.49 -4.22,5.27 -6.36,11.53 -6.36,18.78 0,5.75 1.75,11.03 5.22,15.85 3.46,4.83 8.07,9.38 13.82,13.6 5.72,4.22 11.92,8.45 18.57,12.68 10.9,6.35 22.05,13.05 33.55,20.18 11.48,7.08 21.07,15.15 28.76,24.24 7.68,9.06 11.57,20.09 11.57,33.05 0,12.71 -3.56,24.02 -10.68,34 -7.08,9.94 -17.06,17.83 -29.9,23.55 -12.84,5.76 -27.71,8.61 -44.62,8.61z"/>
   <path class="fil0" d="M5722.67 640.38c-14.21,0 -23.86,-3.78 -29.01,-11.31 -5.12,-7.56 -7.68,-18.27 -7.68,-32.18 0,-8.46 0.67,-18.4 2.04,-29.91 1.36,-11.48 3.02,-23.71 4.98,-36.71 1.97,-12.96 3.63,-26.11 4.99,-39.4 1.37,-13.29 2.04,-25.96 2.04,-38.07 0,-3.63 -0.54,-7.53 -1.59,-11.79 -1.05,-4.2 -3.09,-7.92 -6.11,-11.09 -3.02,-3.18 -7.56,-4.77 -13.6,-4.77 -8.45,0 -16.9,3.95 -25.38,11.79 -8.46,7.85 -16.47,18.43 -24,31.72 -7.56,13.31 -14.36,28.02 -20.4,44.17 -6.04,16.17 -10.8,32.79 -14.27,49.86 -3.46,17.06 -5.21,33.3 -5.21,48.71 0,4.51 0.06,8.67 0.23,12.46 0.15,3.77 0.38,7.62 0.69,11.53l-38.07 0c-0.32,-2.1 -0.44,-4 -0.44,-5.66l0 -6.1c0,-5.15 0.28,-11.12 0.88,-17.93 0.6,-6.8 1.59,-15.85 2.95,-27.17 1.37,-11.34 3.09,-26.5 5.22,-45.53 2.1,-17.83 3.68,-31.72 4.77,-41.7 1.05,-9.97 1.87,-17.6 2.48,-22.88 0.6,-5.27 0.99,-9.34 1.14,-12.23 0.13,-2.86 0.23,-5.95 0.23,-9.28 0,-5.43 -0.77,-10.2 -2.29,-14.27 -1.5,-4.1 -4.83,-6.13 -9.94,-6.13 -4.83,0 -10.42,3.34 -16.78,9.98 -6.32,6.64 -11.76,17.99 -16.3,33.97l-12.67 -2.7c0.89,-5.43 2.79,-11.73 5.66,-18.81 2.86,-7.09 6.7,-14.12 11.57,-21.07 4.8,-6.96 10.71,-12.68 17.66,-17.22 6.93,-4.51 14.93,-6.8 24,-6.8 10.26,0 17.89,2.79 22.88,8.39 4.99,5.59 8.16,12.77 9.53,21.51 1.37,8.77 1.72,18.15 1.12,28.1 -0.6,8.49 -1.56,16.62 -2.93,24.47 -1.37,7.88 -2.67,14.81 -3.85,20.85l1.33 0c10.27,-27.49 20.4,-48.71 30.38,-63.65 9.94,-14.97 19.86,-25.3 29.68,-31.05 9.78,-5.72 19.54,-8.61 29.2,-8.61 12.07,0 21.76,2.73 29.01,8.16 7.24,5.44 12.46,12.62 15.63,21.52 3.15,8.93 4.74,18.66 4.74,29.23 0,16.62 -1.11,33.59 -3.4,50.98 -2.26,17.39 -4.51,33.37 -6.8,48.01 -2.26,14.66 -3.37,26.37 -3.37,35.12 0,5.43 0.67,10.26 2.03,14.52 1.34,4.22 4.74,6.32 10.21,6.32 5.12,0 10.77,-3.24 16.97,-9.73 6.2,-6.51 11.57,-17.92 16.08,-34.22l12.71 3.18c-0.92,5.14 -2.8,11.31 -5.69,18.58 -2.86,7.25 -6.7,14.27 -11.53,21.04 -4.83,6.8 -10.75,12.48 -17.67,17 -6.95,4.55 -14.96,6.8 -24.02,6.8z"/>
   <path class="fil0" d="M5881.25 640.38c-12.07,0 -21.74,-2.73 -29.01,-8.17 -7.24,-5.43 -12.45,-12.67 -15.6,-21.74 -3.17,-9.05 -4.77,-18.71 -4.77,-29.01 0,-16.91 1.21,-33.98 3.62,-51.2 2.41,-17.19 4.84,-33.14 7.25,-47.79 2.41,-14.66 3.62,-26.19 3.62,-34.67 0,-5.72 -0.67,-10.71 -2.04,-14.93 -1.37,-4.22 -4.77,-6.36 -10.2,-6.36 -4.84,0 -10.21,3.34 -16.08,9.98 -5.88,6.64 -11.1,17.99 -15.64,33.97l-12.68 -2.7c0.89,-5.43 2.7,-11.73 5.44,-18.81 2.69,-7.09 6.41,-14.12 11.09,-21.07 4.67,-6.96 10.42,-12.68 17.22,-17.22 6.8,-4.51 14.71,-6.8 23.8,-6.8 12.08,0 21.2,3.78 27.39,11.34 6.2,7.53 9.31,18.43 9.31,32.61 0,8.49 -0.77,18.91 -2.29,31.27 -1.53,12.39 -3.24,25.29 -5.22,38.73 -1.97,13.45 -3.68,26.51 -5.21,39.22 -1.5,12.67 -2.26,23.86 -2.26,33.53 0,3.3 0.51,7.24 1.59,11.76 1.05,4.54 3.18,8.49 6.33,11.79 3.17,3.33 7.62,4.98 13.38,4.98 8.45,0 16.77,-3.94 24.91,-11.78 8.17,-7.85 15.86,-18.4 23.11,-31.72 7.28,-13.29 13.76,-28 19.51,-44.17 5.72,-16.14 10.17,-32.76 13.35,-49.82 3.18,-17.07 4.77,-33.3 4.77,-48.71 0,-4.55 -0.1,-8.67 -0.23,-12.46 -0.15,-3.78 -0.38,-7.63 -0.69,-11.57l38.07 0c0.29,2.13 0.44,4 0.44,5.66l0 6.13c0,5.14 -0.28,11.24 -0.88,18.33 -0.6,7.12 -1.53,16.49 -2.74,28.1 -1.21,11.63 -3.02,26.98 -5.43,46.01 -2.1,17.51 -3.68,31.24 -4.77,41.21 -1.05,9.98 -1.87,17.45 -2.48,22.44 -0.6,4.99 -0.99,8.84 -1.14,11.54 -0.16,2.73 -0.23,5.75 -0.23,9.08 0,5.44 0.83,10.11 2.51,14.05 1.65,3.91 4.89,5.87 9.72,5.87 5.15,0 10.81,-3.23 17.01,-9.76 6.16,-6.48 11.53,-17.73 16.08,-33.74l12.67 2.73c-0.89,5.44 -2.79,11.69 -5.66,18.78 -2.86,7.12 -6.74,14.14 -11.57,21.07 -4.83,6.96 -10.71,12.71 -17.66,17.22 -6.93,4.55 -14.93,6.8 -24,6.8 -12.11,0 -20.94,-3.78 -26.5,-11.31 -5.59,-7.56 -8.39,-17.38 -8.39,-29.46 0,-8.77 0.82,-18.28 2.48,-28.57 1.65,-10.26 3.56,-20.97 5.66,-32.16l-1.33 0c-10.27,27.49 -20.09,48.56 -29.46,63.21 -9.37,14.65 -18.58,24.69 -27.65,30.12 -9.05,5.44 -18.56,8.17 -28.54,8.17zm48.02 -263.24c-7.25,0 -14.12,-1.43 -20.59,-4.29 -6.51,-2.89 -11.79,-7.4 -15.86,-13.6 -4.1,-6.2 -6.13,-13.98 -6.13,-23.33 0.28,-9.05 2.73,-17 7.24,-23.8 4.54,-6.8 10.36,-12.07 17.45,-15.85 7.08,-3.78 14.42,-5.66 21.99,-5.66 7.24,0 14.11,1.43 20.59,4.29 6.51,2.89 11.85,7.34 16.08,13.38 4.22,6.04 6.2,13.76 5.91,23.11 0,9.38 -2.41,17.45 -7.24,24.25 -4.83,6.8 -10.81,12.07 -17.89,15.85 -7.13,3.78 -14.3,5.66 -21.55,5.66zm2.29 -12.68c5.43,-0.28 10.26,-3.08 14.48,-8.39 4.23,-5.28 6.49,-11.85 6.8,-19.7 0.6,-9.67 -0.98,-17.67 -4.77,-24.02 -3.78,-6.32 -8.99,-9.34 -15.63,-9.06 -5.76,0.32 -10.81,3.18 -15.2,8.61 -4.35,5.44 -6.86,12.08 -7.47,19.93 -0.29,8.77 1.53,16.47 5.43,23.11 3.95,6.67 9.38,9.85 16.34,9.53z"/>
   <path class="fil0" d="M6387.8 640.38c-14.21,0 -23.8,-3.78 -28.76,-11.31 -4.98,-7.56 -7.49,-18.27 -7.49,-32.18 0,-8.46 0.83,-18.4 2.51,-29.91 1.65,-11.48 3.52,-23.71 5.66,-36.71 2.09,-12.96 4,-26.11 5.66,-39.4 1.65,-13.29 2.5,-25.96 2.5,-38.07 0,-3.63 -0.63,-7.53 -1.81,-11.79 -1.23,-4.2 -3.33,-7.92 -6.35,-11.09 -3.03,-3.18 -7.57,-4.77 -13.6,-4.77 -8.46,0 -16.75,3.95 -24.92,11.79 -8.17,7.85 -15.7,18.43 -22.65,31.72 -6.96,13.31 -13.06,28.02 -18.34,44.17 -5.31,16.17 -9.44,32.79 -12.46,49.86 -3.04,17.06 -4.54,33.3 -4.54,48.71 0,4.51 0.06,8.67 0.22,12.46 0.16,3.77 0.39,7.62 0.67,11.53l-38.03 0c-0.32,-2.1 -0.45,-4 -0.45,-5.66l0 -6.1c0,-11.5 0.83,-25.07 2.49,-40.81 1.65,-15.69 3.62,-31.84 5.87,-48.46 2.29,-16.62 4.22,-32.31 5.91,-47.12 1.66,-14.81 2.32,-26.89 2.04,-36.26 -0.32,-5.12 -1.81,-10.71 -4.54,-16.75 -2.7,-6.04 -8.46,-9.09 -17.22,-9.09 -8.46,0 -16.69,3.95 -24.7,11.79 -8.01,7.85 -15.48,18.43 -22.4,31.72 -6.95,13.31 -13.15,28.02 -18.58,44.17 -5.44,16.17 -9.67,32.79 -12.68,49.86 -3.02,17.06 -4.54,33.3 -4.54,48.71 0,4.51 0.06,8.67 0.22,12.46 0.16,3.77 0.39,7.62 0.7,11.53l-38.07 0c-0.29,-2.1 -0.45,-4 -0.45,-5.66l0 -6.1c0,-5.15 0.23,-11.12 0.67,-17.93 0.45,-6.8 1.37,-15.85 2.74,-27.17 1.36,-11.34 3.08,-26.5 5.21,-45.53 2.1,-17.83 3.78,-31.72 4.99,-41.7 1.18,-9.97 2.1,-17.6 2.7,-22.88 0.6,-5.27 0.98,-9.34 1.14,-12.23 0.16,-2.86 0.23,-5.95 0.23,-9.28 0,-5.43 -0.77,-10.2 -2.26,-14.27 -1.52,-4.1 -4.86,-6.13 -9.98,-6.13 -4.83,0 -10.42,3.34 -16.77,9.98 -6.32,6.64 -11.76,17.99 -16.3,33.97l-12.68 -2.7c0.89,-5.43 2.8,-11.73 5.66,-18.81 2.86,-7.09 6.71,-14.12 11.58,-21.07 4.83,-6.96 10.7,-12.68 17.66,-17.22 6.93,-4.51 14.93,-6.8 23.99,-6.8 9.98,0 17.39,2.51 22.21,7.49 4.84,4.96 8.07,11.48 9.76,19.48 1.66,8.01 2.16,16.68 1.59,26.06 -0.32,8.45 -1.24,16.97 -2.74,25.58 -1.52,8.61 -2.86,16.08 -4.06,22.43l1.33 0c9.69,-27.48 19.26,-48.49 28.79,-62.98 9.5,-14.49 18.88,-24.47 28.1,-29.91 9.22,-5.43 17.89,-8.16 26.06,-8.16 12.07,0 21.66,2.79 28.75,8.39 7.09,5.59 12.17,12.3 15.19,20.18 3.03,7.85 4.51,15.54 4.51,23.11 0,8.45 -0.6,15.7 -1.81,21.74 -1.21,6.04 -3.17,14.81 -5.87,26.28l1.36 0c9.95,-27.48 19.86,-48.39 29.68,-62.76 9.79,-14.33 19.38,-24.09 28.76,-29.2 9.34,-5.14 18.11,-7.72 26.28,-7.72 12.08,0 21.58,2.73 28.54,8.16 6.96,5.44 11.85,12.62 14.75,21.52 2.86,8.93 4.29,18.66 4.29,29.23 0,16.62 -1.21,33.59 -3.62,50.98 -2.41,17.39 -4.92,33.37 -7.47,48.01 -2.57,14.66 -3.87,26.37 -3.87,35.12 0,5.43 0.7,10.26 2.06,14.52 1.33,4.22 4.74,6.32 10.17,6.32 5.15,0 10.9,-3.24 17.22,-9.73 6.36,-6.51 11.79,-17.92 16.33,-34.22l12.68 3.18c-0.92,5.14 -2.89,11.31 -5.91,18.58 -3.02,7.25 -6.93,14.27 -11.76,21.04 -4.84,6.8 -10.75,12.48 -17.67,17 -6.95,4.55 -14.96,6.8 -24.02,6.8z"/>
   <path class="fil0" d="M4343.5 1065.66c-0.32,-2.09 -0.44,-4 -0.44,-5.66l0 -6.13c0,-5.12 0.13,-11.25 0.44,-18.34 0.29,-7.09 0.99,-16.56 2.04,-28.31 1.04,-11.79 2.64,-27.2 4.77,-46.24 2.1,-19.61 3.78,-34.42 4.99,-44.39 1.21,-9.98 2.1,-17.3 2.7,-21.96 0.6,-4.7 0.92,-8.55 0.92,-11.57 0.29,-6.04 -0.09,-11.92 -1.14,-17.67 -1.04,-5.75 -4.77,-8.61 -11.09,-8.61 -4.83,0 -10.42,3.34 -16.78,9.98 -6.32,6.64 -11.76,17.95 -16.3,33.97l-12.68 -2.73c0.89,-5.43 2.8,-11.69 5.66,-18.78 2.86,-7.09 6.7,-14.11 11.57,-21.07 4.83,-6.96 10.71,-12.68 17.67,-17.22 6.93,-4.55 14.93,-6.8 23.99,-6.8 13.6,0 22.65,4.7 27.2,14.04 4.51,9.38 6.48,21.9 5.87,37.63 -0.28,6.64 -1.11,13.95 -2.48,21.96 -1.36,8.01 -2.79,16.39 -4.31,25.13l1.36 0c8.77,-26.28 17.89,-46.49 27.43,-60.69 9.49,-14.21 19.16,-24.09 28.98,-29.68 9.82,-5.59 19.55,-8.39 29.24,-8.39 9.05,0 16.62,2.35 22.65,7.03 6.04,4.7 9.05,11.09 9.05,19.25 0,5.44 -1.9,10.43 -5.66,14.97 -3.77,4.51 -8.83,6.76 -15.19,6.76 -5.43,0 -10.13,-1.65 -14.04,-4.95 -3.95,-3.33 -6.2,-8.01 -6.8,-14.04 -8.46,-1.81 -16.68,0.89 -24.69,8.13 -8.01,7.24 -15.57,17.6 -22.66,31.05 -7.08,13.44 -13.28,28.46 -18.56,45.08 -5.31,16.63 -9.47,33.53 -12.48,50.72 -3.02,17.22 -4.51,33.24 -4.51,48.05 0,4.51 0.06,7.91 0.23,10.2 0.15,2.26 0.38,5.37 0.67,9.28l-37.6 0z"/>
   <path class="fil0" d="M4628.94 834.13c16.3,0 30.95,3.85 43.95,11.57 13,7.69 23.26,18.94 30.82,33.75 7.53,14.81 11.31,32.76 11.31,53.93 0,24.15 -4.39,46.74 -13.12,67.71 -8.77,21.01 -21.38,37.85 -37.85,50.52 -16.46,12.68 -36.47,19.04 -60.03,19.04 -19.95,0 -36.32,-4.55 -49.16,-13.6 -12.84,-9.06 -22.38,-21.29 -28.54,-36.71 -6.2,-15.41 -9.31,-32.47 -9.31,-51.19 0,-24.47 4.45,-46.97 13.39,-67.5 8.89,-20.56 21.74,-36.96 38.51,-49.16 16.75,-12.23 36.77,-18.37 60.03,-18.37zm-6.8 16.78c-13.28,-0.32 -24.75,4.13 -34.41,13.35 -9.69,9.22 -17.16,21.67 -22.44,37.4 -5.31,15.7 -8.11,33.2 -8.39,52.52 -0.32,10.3 0.28,21.17 1.81,32.64 1.52,11.48 4.16,22.21 7.91,32.16 3.78,9.98 9.09,18.15 15.89,24.47 6.77,6.35 15.32,9.66 25.58,9.98 12.08,0.28 22.34,-2.96 30.82,-9.76 8.45,-6.79 15.25,-15.63 20.37,-26.5 5.15,-10.86 9,-22.49 11.57,-34.89 2.55,-12.36 4.01,-24 4.3,-34.86 0.32,-10.58 -0.23,-21.45 -1.59,-32.64 -1.33,-11.19 -4,-21.61 -7.91,-31.28 -3.95,-9.66 -9.38,-17.44 -16.3,-23.32 -6.96,-5.88 -16.02,-8.99 -27.2,-9.28z"/>
   <path class="fil0" d="M4758.07 1070.65l-14.48 -11.35c7.53,-11.15 16.36,-23.61 26.5,-37.36 10.11,-13.73 20.53,-27.87 31.27,-42.36 10.71,-14.48 20.91,-28.09 30.57,-40.77 8.45,-10.86 16.08,-20.68 22.88,-29.46 6.8,-8.74 13.5,-17.13 20.18,-25.14 6.64,-8.01 13.41,-16.23 20.37,-24.69l-0.88 0c-7.88,8.46 -15.41,13.73 -22.66,15.86 -7.24,2.09 -13.92,2.86 -19.95,2.25 -6.32,-0.6 -12.36,-1.87 -18.11,-3.85 -5.76,-1.96 -11.4,-3.94 -17,-5.91 -5.59,-1.94 -11.7,-2.92 -18.34,-2.92 -5.14,0 -10.58,1.75 -16.3,5.21 -5.75,3.47 -8.61,10.49 -8.61,21.07 0,5.43 1.05,11.19 3.18,17.22l-12.23 4.07c-1.52,-4.55 -2.89,-9.38 -4.1,-14.49 -1.21,-5.15 -1.81,-10.27 -1.81,-15.41 0,-9.66 2.29,-18.11 6.8,-25.39 4.54,-7.24 10.49,-12.9 17.89,-16.97 7.4,-4.1 15.48,-6.13 24.25,-6.13 9.05,0 17.06,1.21 24.02,3.62 6.93,2.44 13.88,4.83 20.84,7.28 6.93,2.41 14.93,3.62 23.99,3.62 3.95,0 9.82,-0.86 17.67,-2.51 7.85,-1.65 15.57,-5.81 23.13,-12.46l13.57 12.68c-4.51,5.75 -11.53,14.36 -21.07,25.83 -9.49,11.47 -20.37,24.75 -32.6,39.88 -12.23,15.1 -24.69,30.8 -37.37,47.09 -13.31,17.22 -25.1,32.42 -35.36,45.54 -10.27,13.15 -20.84,27.13 -31.72,41.91l0.48 0c6.93,-8.13 14.56,-14.11 22.88,-17.89 8.3,-3.78 18.02,-5.66 29.2,-5.66 7.57,0 14.81,1.21 21.76,3.62 6.94,2.41 13.83,4.89 20.59,7.47 6.8,2.58 13.54,3.85 20.19,3.85 5.12,0 10.55,-1.43 16.3,-4.29 5.76,-2.86 8.61,-9.6 8.61,-20.19 0,-2.41 -0.22,-5.12 -0.67,-8.13 -0.48,-3.02 -1.3,-6.04 -2.5,-9.05l12.23 -4.1c1.52,4.54 2.79,9.38 3.85,14.52 1.08,5.12 1.59,10.26 1.59,15.38 0,9.69 -2.1,18.15 -6.32,25.39 -4.26,7.24 -9.98,12.9 -17.22,16.97 -7.24,4.1 -15.25,6.13 -24.02,6.13 -9.05,0 -18.05,-1.37 -26.95,-4.07 -8.93,-2.73 -17.76,-5.43 -26.5,-8.16 -8.76,-2.74 -17.66,-4.07 -26.73,-4.07 -6.67,0 -13.31,0.98 -19.95,2.93 -6.64,1.96 -13.73,6.41 -21.29,13.38z"/>
   <path class="fil0" d="M5043.06 1070.65c-12.07,0 -21.74,-2.74 -28.98,-8.17 -7.28,-5.43 -12.49,-12.67 -15.64,-21.74 -3.18,-9.05 -4.77,-18.72 -4.77,-29.01 0,-16.9 1.21,-33.97 3.62,-51.19 2.41,-17.22 4.83,-33.14 7.24,-47.8 2.42,-14.65 3.63,-26.19 3.63,-34.66 0,-5.72 -0.67,-10.71 -2.04,-14.94 -1.37,-4.22 -4.77,-6.35 -10.21,-6.35 -4.83,0 -10.2,3.33 -16.08,9.98 -5.87,6.64 -11.09,17.98 -15.63,33.97l-12.68 -2.7c0.89,-5.43 2.74,-11.73 5.43,-18.81 2.74,-7.09 6.42,-14.12 11.1,-21.07 4.7,-6.96 10.42,-12.68 17.22,-17.22 6.8,-4.51 14.75,-6.8 23.8,-6.8 12.08,0 21.2,3.77 27.39,11.34 6.2,7.53 9.31,18.43 9.31,32.61 0,8.48 -0.77,18.87 -2.29,31.27 -1.5,12.39 -3.24,25.29 -5.22,38.73 -1.97,13.44 -3.68,26.5 -5.22,39.18 -1.49,12.71 -2.25,23.86 -2.25,33.55 0,3.31 0.5,7.25 1.59,11.76 1.05,4.54 3.18,8.45 6.36,11.78 3.14,3.34 7.59,4.99 13.35,4.99 8.45,0 16.77,-3.94 24.91,-11.79 8.17,-7.85 15.86,-18.39 23.14,-31.71 7.24,-13.29 13.73,-28.03 19.47,-44.17 5.72,-16.18 10.17,-32.76 13.35,-49.82 3.18,-17.07 4.77,-33.31 4.77,-48.72 0,-4.54 -0.1,-8.67 -0.23,-12.45 -0.15,-3.78 -0.38,-7.63 -0.69,-11.58l38.07 0c0.29,2.13 0.44,4.01 0.44,5.66l0 6.13c0,5.15 -0.28,11.25 -0.88,18.34 -0.61,7.12 -1.53,16.46 -2.74,28.09 -1.21,11.64 -3.02,26.98 -5.43,45.98 -2.1,17.54 -3.68,31.27 -4.74,41.25 -1.08,9.98 -1.9,17.45 -2.5,22.44 -0.6,4.99 -0.99,8.83 -1.14,11.53 -0.16,2.74 -0.23,5.76 -0.23,9.06 0,5.46 0.83,10.13 2.51,14.04 1.65,3.94 4.89,5.91 9.72,5.91 5.15,0 10.8,-3.24 17,-9.76 6.2,-6.49 11.58,-17.73 16.08,-33.74l12.68 2.73c-0.89,5.43 -2.79,11.69 -5.66,18.78 -2.86,7.12 -6.74,14.14 -11.53,21.07 -4.86,6.95 -10.75,12.67 -17.7,17.22 -6.94,4.54 -14.94,6.8 -24,6.8 -12.11,0 -20.94,-3.78 -26.5,-11.35 -5.59,-7.53 -8.39,-17.35 -8.39,-29.42 0,-8.77 0.82,-18.28 2.48,-28.57 1.65,-10.26 3.56,-20.97 5.68,-32.16l-1.36 0c-10.27,27.49 -20.09,48.56 -29.46,63.21 -9.37,14.65 -18.58,24.69 -27.65,30.12 -9.05,5.43 -18.56,8.17 -28.54,8.17z"/>
   <path class="fil0" d="M5549.61 1070.65c-14.21,0 -23.81,-3.78 -28.76,-11.35 -4.99,-7.53 -7.5,-18.27 -7.5,-32.16 0,-8.45 0.83,-18.39 2.51,-29.9 1.66,-11.48 3.53,-23.71 5.66,-36.71 2.1,-12.96 4.01,-26.12 5.66,-39.4 1.65,-13.29 2.51,-26 2.51,-38.08 0,-3.62 -0.6,-7.53 -1.81,-11.78 -1.24,-4.23 -3.34,-7.92 -6.36,-11.1 -3.02,-3.17 -7.57,-4.77 -13.6,-4.77 -8.45,0 -16.75,3.95 -24.92,11.79 -8.16,7.85 -15.69,18.43 -22.65,31.72 -6.95,13.31 -13.06,28.02 -18.33,44.17 -5.31,16.18 -9.44,32.8 -12.46,49.86 -3.05,17.07 -4.55,33.31 -4.55,48.69 0,4.54 0.06,8.71 0.23,12.46 0.16,3.81 0.38,7.66 0.7,11.57l-38.08 0c-0.32,-2.1 -0.44,-4.01 -0.44,-5.66l0 -6.13c0,-11.47 0.83,-25.07 2.48,-40.77 1.65,-15.7 3.62,-31.84 5.88,-48.46 2.29,-16.62 4.22,-32.32 5.91,-47.13 1.65,-14.8 2.32,-26.88 2.04,-36.26 -0.32,-5.12 -1.81,-10.71 -4.55,-16.75 -2.7,-6.04 -8.45,-9.09 -17.19,-9.09 -8.49,0 -16.72,3.95 -24.69,11.79 -8.04,7.85 -15.51,18.43 -22.44,31.72 -6.96,13.31 -13.16,28.02 -18.59,44.17 -5.43,16.18 -9.66,32.8 -12.67,49.86 -3.03,17.07 -4.55,33.31 -4.55,48.69 0,4.54 0.1,8.71 0.23,12.46 0.15,3.81 0.38,7.66 0.69,11.57l-38.07 0c-0.29,-2.1 -0.44,-4.01 -0.44,-5.66l0 -6.13c0,-5.12 0.22,-11.09 0.67,-17.89 0.48,-6.8 1.37,-15.85 2.73,-27.17 1.37,-11.35 3.08,-26.5 5.22,-45.54 2.1,-17.83 3.78,-31.71 4.99,-41.69 1.21,-9.98 2.09,-17.6 2.69,-22.88 0.61,-5.28 0.99,-9.34 1.14,-12.23 0.16,-2.86 0.23,-5.97 0.23,-9.28 0,-5.44 -0.76,-10.21 -2.25,-14.27 -1.53,-4.1 -4.84,-6.13 -9.98,-6.13 -4.83,0 -10.42,3.33 -16.78,9.98 -6.32,6.64 -11.76,17.98 -16.3,33.97l-12.68 -2.7c0.89,-5.43 2.79,-11.73 5.66,-18.81 2.86,-7.09 6.74,-14.12 11.57,-21.07 4.83,-6.96 10.71,-12.68 17.66,-17.22 6.94,-4.51 14.94,-6.8 24.02,-6.8 9.95,0 17.36,2.5 22.19,7.49 4.83,4.95 8.07,11.48 9.76,19.48 1.65,8.01 2.19,16.68 1.59,26.02 -0.32,8.49 -1.21,17 -2.73,25.61 -1.52,8.61 -2.86,16.08 -4.07,22.44l1.34 0c9.68,-27.49 19.25,-48.49 28.79,-62.98 9.49,-14.49 18.87,-24.47 28.09,-29.91 9.22,-5.43 17.89,-8.16 26.06,-8.16 12.08,0 21.67,2.79 28.76,8.39 7.08,5.59 12.17,12.3 15.19,20.18 3.02,7.85 4.51,15.54 4.51,23.11 0,8.45 -0.6,15.69 -1.81,21.74 -1.21,6.04 -3.18,14.81 -5.88,26.28l1.37 0c9.94,-27.48 19.86,-48.4 29.68,-62.76 9.78,-14.33 19.38,-24.09 28.75,-29.2 9.35,-5.15 18.11,-7.72 26.28,-7.72 12.07,0 21.57,2.73 28.54,8.16 6.95,5.43 11.85,12.62 14.75,21.52 2.86,8.93 4.29,18.65 4.29,29.23 0,16.62 -1.21,33.59 -3.62,50.98 -2.41,17.38 -4.93,33.37 -7.47,48.01 -2.58,14.65 -3.85,26.37 -3.85,35.11 0,5.44 0.67,10.27 2.04,14.49 1.33,4.26 4.73,6.36 10.2,6.36 5.12,0 10.87,-3.24 17.2,-9.76 6.35,-6.49 11.78,-17.9 16.33,-34.19l12.68 3.17c-0.93,5.15 -2.9,11.31 -5.92,18.57 -3.02,7.27 -6.93,14.27 -11.76,21.07 -4.83,6.79 -10.74,12.45 -17.66,17 -6.96,4.54 -14.97,6.8 -24.02,6.8z"/>
   <path class="fil0" d="M5674.65 834.13c12.68,0 22.21,4.3 28.54,12.91 6.36,8.61 9.53,20.02 9.53,34.22 0,9.05 -0.86,19.41 -2.5,31.01 -1.66,11.67 -3.68,24.12 -6.11,37.4 -2.41,13.29 -4.48,26.66 -6.13,40.1 -1.66,13.45 -2.49,26.51 -2.49,39.18 0,6.04 1.12,10.75 3.4,14.04 2.25,3.34 5.81,4.99 10.65,4.99 5.12,0 10.8,-3.33 16.96,-9.97 6.2,-6.65 11.58,-17.96 16.12,-33.98l12.68 2.7c-1.21,6.36 -3.24,13.22 -6.13,20.63 -2.86,7.4 -6.55,14.36 -11.09,20.84 -4.55,6.49 -10.04,11.85 -16.53,16.08 -6.51,4.22 -13.98,6.36 -22.43,6.36 -13.89,0 -24.19,-3.63 -30.82,-10.9 -6.65,-7.25 -9.95,-17.8 -9.95,-31.72 0,-13.29 0.89,-26.19 2.7,-38.74 1.81,-12.51 3.85,-24.91 6.13,-37.15 2.26,-12.23 4.29,-24.53 6.1,-36.92 1.82,-12.36 2.74,-25.07 2.74,-38.07 0,-3.91 -0.86,-8.3 -2.51,-13.12 -1.65,-4.83 -5.05,-7.24 -10.17,-7.24 -4.86,0 -10.42,3.33 -16.77,9.97 -6.36,6.65 -11.79,17.96 -16.3,33.98l-12.71 -2.74c0.92,-5.43 2.73,-11.69 5.47,-18.78 2.69,-7.12 6.39,-14.14 11.09,-21.07 4.67,-6.95 10.32,-12.71 16.97,-17.22 6.67,-4.54 14.52,-6.8 23.57,-6.8zm0 -30.79l-10.86 -9.09 35.34 -59.8c4.22,-6.93 8.29,-11.25 12.23,-12.91 3.91,-1.65 7.31,-1.96 10.2,-0.92 2.86,1.08 4.74,2.06 5.66,2.95 1.21,1.21 2.32,3.18 3.4,5.88 1.04,2.73 1.11,6.2 0.22,10.42 -0.92,4.26 -4.06,9.22 -9.5,14.97l-46.68 48.49z"/>
   <path class="fil0" d="M6093.3 1070.65c-14.21,0 -23.81,-3.78 -28.76,-11.35 -4.99,-7.53 -7.49,-18.27 -7.49,-32.16 0,-8.45 0.82,-18.39 2.5,-29.9 1.66,-11.48 3.53,-23.71 5.66,-36.71 2.1,-12.96 4.01,-26.12 5.66,-39.4 1.66,-13.29 2.51,-26 2.51,-38.08 0,-3.62 -0.6,-7.53 -1.81,-11.78 -1.24,-4.23 -3.34,-7.92 -6.36,-11.1 -3.02,-3.17 -7.56,-4.77 -13.6,-4.77 -8.45,0 -16.75,3.95 -24.91,11.79 -8.17,7.85 -15.7,18.43 -22.66,31.72 -6.95,13.31 -13.06,28.02 -18.33,44.17 -5.31,16.18 -9.44,32.8 -12.46,49.86 -3.05,17.07 -4.55,33.31 -4.55,48.69 0,4.54 0.06,8.71 0.23,12.46 0.16,3.81 0.38,7.66 0.67,11.57l-38.04 0c-0.32,-2.1 -0.44,-4.01 -0.44,-5.66l0 -6.13c0,-11.47 0.83,-25.07 2.48,-40.77 1.66,-15.7 3.62,-31.84 5.88,-48.46 2.29,-16.62 4.22,-32.32 5.91,-47.13 1.65,-14.8 2.32,-26.88 2.04,-36.26 -0.32,-5.12 -1.81,-10.71 -4.55,-16.75 -2.7,-6.04 -8.45,-9.09 -17.22,-9.09 -8.45,0 -16.68,3.95 -24.69,11.79 -8.01,7.85 -15.48,18.43 -22.4,31.72 -6.96,13.31 -13.15,28.02 -18.59,44.17 -5.43,16.18 -9.66,32.8 -12.67,49.86 -3.02,17.07 -4.55,33.31 -4.55,48.69 0,4.54 0.06,8.71 0.23,12.46 0.16,3.81 0.38,7.66 0.7,11.57l-38.08 0c-0.28,-2.1 -0.44,-4.01 -0.44,-5.66l0 -6.13c0,-5.12 0.23,-11.09 0.67,-17.89 0.48,-6.8 1.37,-15.85 2.73,-27.17 1.37,-11.35 3.09,-26.5 5.22,-45.54 2.1,-17.83 3.78,-31.71 4.99,-41.69 1.17,-9.98 2.1,-17.6 2.7,-22.88 0.6,-5.28 0.98,-9.34 1.14,-12.23 0.15,-2.86 0.22,-5.97 0.22,-9.28 0,-5.44 -0.76,-10.21 -2.25,-14.27 -1.52,-4.1 -4.83,-6.13 -9.98,-6.13 -4.83,0 -10.42,3.33 -16.78,9.98 -6.32,6.64 -11.76,17.98 -16.3,33.97l-12.68 -2.7c0.89,-5.43 2.8,-11.73 5.66,-18.81 2.86,-7.09 6.74,-14.12 11.57,-21.07 4.83,-6.96 10.71,-12.68 17.67,-17.22 6.93,-4.51 14.93,-6.8 23.99,-6.8 9.98,0 17.39,2.5 22.21,7.49 4.83,4.95 8.07,11.48 9.76,19.48 1.66,8.01 2.19,16.68 1.59,26.02 -0.32,8.49 -1.21,17 -2.73,25.61 -1.52,8.61 -2.86,16.08 -4.06,22.44l1.33 0c9.69,-27.49 19.26,-48.49 28.79,-62.98 9.5,-14.49 18.87,-24.47 28.09,-29.91 9.22,-5.43 17.9,-8.16 26.06,-8.16 12.08,0 21.67,2.79 28.76,8.39 7.09,5.59 12.17,12.3 15.19,20.18 3.02,7.85 4.51,15.54 4.51,23.11 0,8.45 -0.6,15.69 -1.81,21.74 -1.21,6.04 -3.18,14.81 -5.88,26.28l1.37 0c9.94,-27.48 19.86,-48.4 29.68,-62.76 9.79,-14.33 19.38,-24.09 28.76,-29.2 9.34,-5.15 18.11,-7.72 26.28,-7.72 12.08,0 21.57,2.73 28.54,8.16 6.96,5.43 11.85,12.62 14.75,21.52 2.86,8.93 4.29,18.65 4.29,29.23 0,16.62 -1.21,33.59 -3.62,50.98 -2.41,17.38 -4.93,33.37 -7.47,48.01 -2.58,14.65 -3.85,26.37 -3.85,35.11 0,5.44 0.67,10.27 2.04,14.49 1.33,4.26 4.74,6.36 10.17,6.36 5.14,0 10.9,-3.24 17.22,-9.76 6.35,-6.49 11.79,-17.9 16.33,-34.19l12.68 3.17c-0.93,5.15 -2.89,11.31 -5.91,18.57 -3.03,7.27 -6.94,14.27 -11.76,21.07 -4.83,6.79 -10.74,12.45 -17.66,17 -6.96,4.54 -14.97,6.8 -24.02,6.8z"/>
   <path class="fil0" d="M6285.85 834.13c10.87,0 21.13,1.66 30.82,4.99 9.66,3.34 17.51,8.77 23.55,16.3 6.04,7.57 9.05,17.83 9.05,30.82 0,12.39 -4.22,23.11 -12.67,32.16 -8.46,9.05 -19.48,16.52 -33.09,22.44 -13.59,5.87 -28.09,10.64 -43.5,14.27 -15.39,3.62 -30.19,6.19 -44.39,7.68 0,18.75 1.87,34.45 5.66,47.13 3.77,12.68 9.43,22.21 17,28.54 7.53,6.35 17.22,9.53 28.98,9.53 8.77,0 17.61,-1.96 26.54,-5.91 8.9,-3.91 17.41,-9.88 25.58,-17.89 8.16,-8.01 15.54,-18.34 22.21,-31.01l14.93 8.61c-8.46,15.7 -17.51,28.69 -27.17,38.96 -9.69,10.26 -20.25,17.83 -31.72,22.65 -11.5,4.8 -24.19,7.25 -38.07,7.25 -28.7,0 -49.83,-9 -63.43,-26.99 -13.6,-17.95 -20.4,-41.59 -20.4,-70.89 0,-17.51 2.29,-34.57 6.8,-51.19 4.55,-16.62 11.35,-31.49 20.4,-44.65 9.05,-13.12 20.53,-23.55 34.42,-31.24 13.88,-7.72 30.06,-11.57 48.49,-11.57zm-6.36 15.41c-13.88,0 -25.29,4.68 -34.18,14.05 -8.94,9.37 -15.7,21.45 -20.4,36.22 -4.68,14.81 -7.63,30.38 -8.84,46.69 16.02,-2.1 31.27,-5.88 45.76,-11.31 14.52,-5.47 26.44,-12.49 35.82,-21.11 9.34,-8.58 14.04,-18.62 14.04,-30.12 0,-9.67 -2.67,-17.8 -7.94,-24.47 -5.27,-6.64 -13.35,-9.94 -24.25,-9.94z"/>
  </g>
 </g>
</svg>
